<?xml version="1.0" encoding="utf-8"?>
<!-- Generator: Adobe Illustrator 24.1.2, SVG Export Plug-In . SVG Version: 6.00 Build 0)  -->
<svg version="1.1" id="Layer_1" xmlns="http://www.w3.org/2000/svg" xmlns:xlink="http://www.w3.org/1999/xlink" x="0px" y="0px"
	 viewBox="0 0 731 326" style="enable-background:new 0 0 731 326;" xml:space="preserve">
<style type="text/css">
	.st0{fill:#029FE3;}
</style>
<g>
	<path class="st0" d="M193.61,184l0.2,1l0.39,2l0.2,1l0.22,1l0.33,2l0.06,1l0.39,2l0.25,1l0.22,1l0.53,2l0.3,1l0.31,1l0.67,2l0.67,2
		l0.33,1l0.33,1l0.39,1l0.86,2l0.53,1l1,2l0.47,1l0.58,1l0.56,1l1.28,2l1.33,2l0.69,1l0.7,1l0.61,1l0.86,1l1.53,2l1.61,2l1,1l1,1
		l2,2l2,2l1,1l1,1l2,1.61l1,0.75l2,1.64l1,0.61l2,1.39l2,1.33l2,1.28l2,1.14l1,0.47l2,1l2,1l1,0.53l2,0.86l1,0.39l1,0.33l2,0.67
		l2,0.67l1,0.33l2,0.58l1,0.22l2,0.39l2,0.42l2,0.39l2,0.08l1,0.14l2,0.39l1,0.17l1,0.22h2h1h1h2h2h1h2l2-0.39l1-0.22l2-0.33l1-0.06
		l2-0.39l2-0.42l2-0.39l1-0.22l2-0.58l1-0.33l1-0.33l2-0.72l1-0.42l2-0.8l2-0.81l1-0.47l2-1.11l1-0.61l2-1.22l1-0.64l2-1.53l2-2l1-1
		l2-2l4-4v16h55V95h-55v15l-1.47-1.67l-1.61-1.55l-0.95-0.78l-1.97-1.92l-2-1.69l-1-0.75l-2-1.47l-1-0.72l-2-1.19l-1-0.47l-2-1
		l-1-0.53l-2-0.86l-1-0.36l-1-0.36L294,94l-2-0.61L290,93l-1-0.39l-1-0.3l-2-0.61l-1-0.28l-2-0.36L282,91l-2-0.39l-1-0.22l-2-0.31
		l-1-0.05L274,90h-1h-2h-2h-1h-1l-2,0.08l-1,0.14l-1,0.17l-2,0.39L260,91l-2,0.08l-2,0.31l-2,0.42l-2,0.39l-1,0.22L249,93l-1,0.33
		L246,94l-2,0.67l-1,0.36l-1,0.36l-2,0.8l-1,0.45l-1,0.42l-2,1l-1,0.58l-1,0.53l-1,0.58l-1,0.5l-2,1.14l-2,1.3l-2,1.45l-1,0.86
		l-2,1.39l-1,0.83l-2,1.78l-1,1l-2,1.61l-2,1.61l-0.78,0.86l-0.83,0.95l-0.78,0.97l-1.67,2l-0.94,1l-1.58,2l-0.72,1l-1.36,2l-1.33,2
		l-0.61,1l-1.14,2l-0.47,1l-1,2l-0.56,1l-0.44,1l-0.53,1l-0.86,2l-0.39,1l-0.33,1l-0.67,2l-0.67,2l-0.33,1l-0.61,2l-0.39,1l-0.39,2
		l-0.3,1l-0.61,2l-0.28,1l-0.42,2l-0.08,2l-0.14,1l-0.39,2l-0.39,2v1v1v2v5v6v2v1v1l0.39,2L193.61,184z M284.99,136.15
		c19.8,0,35.85,16.05,35.85,35.85s-16.05,35.85-35.85,35.85c-19.8,0-35.85-16.05-35.85-35.85S265.19,136.15,284.99,136.15z"/>
	<polygon class="st0" points="54,187 54,173 54,169 54,167 54,165 54.22,164 54.39,163 54.78,161 55,159 55.22,157 55.42,156 
		56,154 56.33,153 57,151 57.42,150 58.42,148 59,147 60.42,145 62,143 63,142.03 65,140.25 66,139.47 67,139 69,137.78 70,137.25 
		72,136.39 74,135.69 76,135.19 77,135 79,134.61 80,134.39 82,134.17 84,134.39 85,134.61 86,134.78 87,135 88,135.06 90,135.42 
		91,135.69 93,136.42 95,137.42 97,138.69 99,140.22 100.92,142.03 102.53,144 103,145 103.72,146 104.61,148 105.31,150 
		105.61,151 105.86,152 106.36,154 106.61,155 106.92,157 106.97,158 107,160 107,161 107,164 107,174 107,249 162,249 162,172 
		162,152 162,146 162,144 161.97,143 161.92,142 161.61,140 161.39,139 161,137 160.94,136 160.61,134 160,132 159.86,131 
		159.61,130 159,128 158.67,127 158,125 157.33,123 156.97,122 156.61,121 155.72,119 155.17,118 154.61,117 153.97,116 152.61,114 
		151.86,113 150.36,111 149.61,110 147.92,108 146,106.08 144,104.39 143,103.64 141,102.14 140,101.39 139,100.69 137,99.39 
		136,98.83 135,98.28 134,97.83 132,97 131,96.61 129,95.81 128,95.39 126,94.67 124,94 122,93.42 120,93 118,92.61 116,92.22 
		115,92.08 113,92 111,92 109,92 107,91.61 105,91.31 103,91.42 101,91.78 99,92 97,92 95,92 94,92 92,92.08 90,92.39 89,92.64 
		87,93.14 86,93.36 85,93.64 84,94 82,94.39 80,95.03 79,95.39 77,96.25 76,96.78 75,97.22 74,97.78 73,98.22 72,98.78 71,99.25 
		69,100.39 68,101.03 66,102.42 64,104.08 62,106 60,108 58,110 54,114 54,8 54,0 51.94,0 0,0 0,11 0,33 0,82 0,249 54,249 	"/>
	<polygon class="st0" points="511,93 510,93 508,93.03 507,93.08 505,93.39 504,93.61 502,94 500,94.08 498,94.42 496,95 495,95.33 
		493,96 491,96.67 490,97.03 489,97.39 488,97.83 487,98.25 486,98.78 485,99.25 483,100.39 481,101.69 480,102.42 478,104 
		476,105.61 475,106.39 474,107.22 473.22,108.08 472.39,109.03 470.81,111 469.19,113 468.42,114 467.69,115 466.42,117 
		465.89,118 465.53,118.5 465,120 464.28,118.5 464.25,118 464,117 464,116 464,115 464,113 464,110 464,95 450,95 410,95 410,249 
		464,249 464,199 464,188 464,186 464,185 464,183 464,182 464.39,180 464.61,179 464.92,177 464.97,176 465,175 465,173 465,172 
		465.39,170 465.61,169 465.81,168 466.19,166 466.42,165 466.69,164 467.39,162 467.83,161 468.25,160 468.78,159 469.25,158 
		470.39,156 471.69,154 472.42,153 473.22,152 474,151 476,149 478,147.08 479,146.25 480,145.47 482,144.25 483,143.78 484,143.25 
		485,142.83 486,142.39 488,141.69 489,141.42 490,141.19 492,140.81 493,140.61 494,140.39 496,140.08 497,140.03 498,140 500,140 
		503,140 505,140 507,140.08 509,140.39 510,140.61 512,141 514,141.39 516,142 517,142.17 518,142.44 519,142.83 521,143.61 
		522.94,144.33 523.5,144.56 525,145 525,143.5 525,93 514,93 	"/>
	<path class="st0" d="M636,252.58l2,0.42l1,0.06l1,0.17l1,0.17l1,0.22l2,0.39h1h2h1h2h3h1h2h1l2-0.39l1-0.22l2-0.31l1-0.05l2-0.03
		l1-0.22l1-0.17l2-0.42l2-0.39l1-0.22l1-0.28l2-0.64l1-0.33l2-0.72l1-0.42l2-0.8l2-0.78l1-0.44l1-0.42l1-0.53l1-0.47l2-1.14l1-0.61
		l1-0.67l1-0.67l2-1.33l2-1.33l1-0.69l1-0.72l2-1.58l2-1.61l1-0.78l2-1.61l1.92-2l1.69-2l0.78-1l1.61-2l0.94-1l1.64-2l0.72-1l1.36-2
		l1.3-2l0.64-1l1.14-2l0.47-1l1-2l1-2l0.53-1l0.42-1l0.44-1l0.78-2l0.78-2l0.39-1l0.28-1l0.56-2l0.3-1l0.61-2l0.3-1l0.39-2l0.36-1
		l0.25-1l0.31-2l0.08-2v-1l0.39-2l0.22-1l0.31-2l0.05-1l0.03-1v-2v-5v-3v-2l-0.03-2l-0.05-1l-0.31-2l-0.39-2l-0.22-1l-0.08-2
		l-0.14-1l-0.17-1l-0.42-2l-0.39-2l-0.2-1l-0.25-1l-0.36-1l-0.39-2l-0.3-1l-0.31-1l-0.67-2l-0.36-1l-0.36-1l-0.42-1l-0.8-2l-0.78-2
		l-0.44-1l-0.45-1l-0.55-1l-1.17-2l-0.61-1l-1.2-2l-0.58-1l-1.3-2l-1.45-2l-0.86-1l-0.64-1l-0.75-1l-1.69-2l-0.95-1l-1.97-2l-1-1
		l-1-1l-2-1.92l-1-0.86l-1-0.83l-2-1.58l-2-1.61l-1-0.78l-1-0.72l-2-1.3l-1-0.58l-2-1.2l-2-1.22l-1-0.56l-1-0.58l-1-0.47l-1-0.53
		l-1-0.42l-1-0.44l-2-0.78l-2-0.8l-1-0.42l-1-0.36l-2-0.64l-1-0.25l-2-0.5l-1-0.28l-1-0.22l-2-0.5l-1-0.25l-2-0.31L662,91l-1-0.22
		l-2-0.39l-1-0.17l-1-0.14L655,90h-1h-1h-3h-2h-1l-2,0.03l-1,0.05l-2,0.31l-1,0.25L640,91l-1,0.14l-2,0.47l-1,0.2L635,92l-2,0.42
		L631,93l-1,0.33l-2,0.7l-1,0.36l-2,0.86l-1,0.53l-2,1l-1,0.44l-1,0.56l-1,0.47l-2,1.14l-1,0.64l-2,1.39l-2,1.67l-1,0.95l-2,1.97
		l-1,1l-1.67,2l-0.97,1.5L605,112l-0.72-1.5l-0.03-0.5l-0.25-1v-1v-1v-1v-2v-9h-10h-16h-5h-7h-8h-9v5v8v218h16h7h18h1h5h8v-2v-1v-5
		v-84l2,2.06l1,1l2,1.94l1,1l2,1.61l1,0.75l1,0.78l2,1.42l2,1.19l1,0.47l2,1l1,0.53l2,0.86l1,0.39l1,0.33l1,0.33l2,0.67l3,1l1,0.33
		l2,0.64L636,252.58z M601.23,172c0-19.8,16.05-35.85,35.85-35.85s35.85,16.05,35.85,35.85s-16.05,35.85-35.85,35.85
		S601.23,191.8,601.23,172z"/>
	<polygon class="st0" points="725,273 724,273 714,273 706,273 704,273 701,273 695,273 694,273 690,273 684,273 682,273 677,273 
		673,273 672,273 668,273 663,273 658,273 652,273 639,273 634,273 634,324 641,324 645,324 649,324 651,324 661,324 666,324 
		669,324 675,324 676,324 687,324 692,324 700,324 704,324 709,324 713,324 718,324 723,324 731,324 731,273 	"/>
	<polygon class="st0" points="515,274 513,274 394,274 311,274 227,274 0,274 0,325 520,325 520,274 516.94,274 	"/>
</g>
</svg>
